<?xml version="1.0" encoding="UTF-8" standalone="no"?><svg xmlns="http://www.w3.org/2000/svg" xmlns:xlink="http://www.w3.org/1999/xlink" contentScriptType="application/ecmascript" contentStyleType="text/css" height="238px" preserveAspectRatio="none" style="width:674px;height:238px;" version="1.1" viewBox="0 0 674 238" width="674px" zoomAndPan="magnify"><defs/><g><!--cluster cluster--><rect fill="#EEEEEE" height="203" style="stroke: #888888; stroke-width: 1.5;" width="557.5" x="105.5" y="24"/><text fill="#888888" font-family="sans-serif" font-size="14" font-weight="bold" lengthAdjust="spacingAndGlyphs" textLength="55" x="356.75" y="38.9951">cluster</text><!--entity frontend--><rect fill="#FFFFFF" height="62.5938" style="stroke: #000000; stroke-width: 1.5;" width="127" x="121.5" y="59.5"/><path d="M163.8333,60.5 L163.8333,64.5 L156.8333,71.5 L121.5,71.5 " fill="none" style="stroke: #000000; stroke-width: 1.5;"/><text fill="#888888" font-family="sans-serif" font-size="14" font-weight="bold" lengthAdjust="spacingAndGlyphs" textLength="43" x="136.5" y="92.4951">client</text><text fill="#888888" font-family="sans-serif" font-size="14" font-weight="bold" lengthAdjust="spacingAndGlyphs" textLength="87" x="136.5" y="108.792">(front-end)</text><!--entity backend--><rect fill="#8DBF44" height="52.5938" style="stroke: #FFFFFF; stroke-width: 1.5;" width="105" x="336.5" y="59.5"/><text fill="#FFFFFF" font-family="sans-serif" font-size="14" font-weight="bold" lengthAdjust="spacingAndGlyphs" textLength="23" x="346.5" y="82.4951">api</text><text fill="#FFFFFF" font-family="sans-serif" font-size="14" font-weight="bold" lengthAdjust="spacingAndGlyphs" textLength="85" x="346.5" y="98.792">(back-end)</text><!--entity elastic--><path d="M522,112 C522,102 584.5,102 584.5,102 C584.5,102 647,102 647,112 L647,153.5938 C647,163.5938 584.5,163.5938 584.5,163.5938 C584.5,163.5938 522,163.5938 522,153.5938 L522,112 " fill="#519BC8" style="stroke: #FFFFFF; stroke-width: 1.5;"/><path d="M522,112 C522,122 584.5,122 584.5,122 C584.5,122 647,122 647,112 " fill="none" style="stroke: #FFFFFF; stroke-width: 1.5;"/><text fill="#FFFFFF" font-family="sans-serif" font-size="14" font-weight="bold" lengthAdjust="spacingAndGlyphs" textLength="105" x="532" y="138.9951">elasticsearch</text><text fill="#FFFFFF" font-family="sans-serif" font-size="14" font-weight="bold" lengthAdjust="spacingAndGlyphs" textLength="84" x="532" y="155.292">(database)</text><!--entity kibana--><rect fill="#FFFFFF" height="62.5938" style="stroke: #000000; stroke-width: 1.5;" width="144" x="317" y="147.5"/><path d="M365,148.5 L365,152.5 L358,159.5 L317,159.5 " fill="none" style="stroke: #000000; stroke-width: 1.5;"/><text fill="#888888" font-family="sans-serif" font-size="14" font-weight="bold" lengthAdjust="spacingAndGlyphs" textLength="51" x="332" y="180.4951">kibana</text><text fill="#888888" font-family="sans-serif" font-size="14" font-weight="bold" lengthAdjust="spacingAndGlyphs" textLength="104" x="332" y="196.792">(database UI)</text><!--entity user--><ellipse cx="29.5" cy="35.5" fill="#EF525B" rx="8" ry="8" style="stroke: #EF525B; stroke-width: 2.0;"/><path d="M29.5,43.5 L29.5,70.5 M16.5,51.5 L42.5,51.5 M29.5,70.5 L16.5,85.5 M29.5,70.5 L42.5,85.5 " fill="none" style="stroke: #EF525B; stroke-width: 2.0;"/><text fill="#EF525B" font-family="sans-serif" font-size="14" font-weight="bold" lengthAdjust="spacingAndGlyphs" textLength="36" x="11.5" y="101.4951">user</text><!--entity admin--><ellipse cx="29.5" cy="149.5" fill="#EF525B" rx="8" ry="8" style="stroke: #EF525B; stroke-width: 2.0;"/><path d="M29.5,157.5 L29.5,184.5 M16.5,165.5 L42.5,165.5 M29.5,184.5 L16.5,199.5 M29.5,184.5 L42.5,199.5 " fill="none" style="stroke: #EF525B; stroke-width: 2.0;"/><text fill="#EF525B" font-family="sans-serif" font-size="14" font-weight="bold" lengthAdjust="spacingAndGlyphs" textLength="47" x="6" y="215.4951">admin</text><!--link user to frontend--><path d="M47.5137,67.882 C64.2717,70.72 90.9734,75.243 116.333,79.539 " fill="none" id="user-frontend" style="stroke: #519BC8; stroke-width: 2.0;"/><polygon fill="#519BC8" points="121.384,80.394,113.1794,74.9457,116.4544,79.5581,111.8419,82.8331,121.384,80.394" style="stroke: #519BC8; stroke-width: 1.0;"/><!--link admin to frontend--><path d="M53.1495,166.0153 C71.8347,155.3033 99.2242,139.601 124.122,125.328 " fill="none" id="admin-frontend" style="stroke: #519BC8; stroke-width: 2.0;"/><polygon fill="#519BC8" points="128.739,122.681,118.9416,123.6868,124.4012,125.1677,122.9203,130.6273,128.739,122.681" style="stroke: #519BC8; stroke-width: 1.0;"/><!--link admin to kibana--><path d="M53.1344,179 C104.0489,179 229.551,179 311.621,179 " fill="none" id="admin-kibana" style="stroke: #519BC8; stroke-width: 2.0; stroke-dasharray: 7.0,7.0;"/><polygon fill="#519BC8" points="316.963,179,307.963,175,311.963,179,307.963,183,316.963,179" style="stroke: #519BC8; stroke-width: 1.0;"/><text fill="#519BC8" font-family="sans-serif" font-size="13" font-weight="bold" lengthAdjust="spacingAndGlyphs" textLength="140" x="115" y="175.0669">by port forwarding</text><!--link frontend to backend--><path d="M248.531,89.452 C274.927,88.799 305.445,88.043 331.192,87.406 " fill="none" id="frontend-backend" style="stroke: #519BC8; stroke-width: 2.0;"/><polygon fill="#519BC8" points="336.275,87.28,327.1794,83.5023,331.2765,87.4029,327.376,91.4999,336.275,87.28" style="stroke: #519BC8; stroke-width: 1.0;"/><!--link backend to elastic--><path d="M441.6,98.533 C464.691,104.142 492.205,110.825 516.832,116.807 " fill="none" id="backend-elastic" style="stroke: #519BC8; stroke-width: 2.0;"/><polygon fill="#519BC8" points="521.716,117.993,513.9143,111.9819,516.8572,116.813,512.0262,119.7559,521.716,117.993" style="stroke: #519BC8; stroke-width: 1.0;"/><!--link kibana to elastic--><path d="M461.228,162.0673 C479.45,157.7353 498.974,153.0941 516.951,148.8205 " fill="none" id="kibana-elastic" style="stroke: #519BC8; stroke-width: 2.0;"/><polygon fill="#519BC8" points="521.978,147.6254,512.2971,145.8141,517.1134,148.7812,514.1463,153.5974,521.978,147.6254" style="stroke: #519BC8; stroke-width: 1.0;"/><!--
@startuml

skinparam backgroundColor transparent
skinparam defaultFontColor #519BC8
skinparam defaultFontStyle bold
skinparam arrowColor #519BC8
skinparam arrowThickness 2
skinparam shadowing false

skinparam actor {
    borderColor #EF525B
    backgroundColor #EF525B
    fontColor #EF525B
}
skinparam agent {
    borderColor white
    backGroundcolor #8DBF44
    fontColor white
}
skinparam database {
    borderColor white
    backGroundcolor #519BC8
    fontColor white
} 
skinparam rectangle {
    borderColor #888888
    backGroundcolor #EEEEEE
    fontColor #888888
}
skinparam cloud {
    borderColor #888888
    backGroundcolor #EEEEEE
    fontColor #888888
}
skinparam folder {
    borderColor #888888
    backGroundcolor #EEEEEE
    fontColor #888888
}
skinparam package {
    borderColor #888888
    backGroundcolor #EEEEEE
    fontColor #888888
}
skinparam frame {
    borderColor black
    backGroundcolor white
    fontColor 888888
}
skinparam component {
    borderColor white
    backGroundcolor #8DBF44
    fontColor white
}
skinparam artifact {
    borderColor white
    backGroundcolor #8DBF44
    fontColor white
}
skinparam node {
    borderColor white
    backGroundcolor #8DBF44
    fontColor white
}
skinparam queue {
    borderColor white
    backGroundcolor #8DBF44
    fontColor white
}
skinparam file {
    borderColor white
    backGroundcolor #888888
    fontColor white
}
skinparam storage {
    borderColor white
    backGroundcolor #8DBF44
    fontColor white
}
skinparam interface {
    borderColor #B30C37
    backGroundcolor #EF525B
}
skinparam boundary {
    borderColor #B30C37
    backGroundcolor #EF525B
}
skinparam entity {
    borderColor #B30C37
    backGroundcolor #EF525B
}
skinparam control {
    borderColor #B30C37
    backGroundcolor #EF525B
}
skinparam sequence {
    BoxFontColor white
    ParticipantFontColor white
    ParticipantBackgroundColor #8DBF44
    ParticipantBorderColor white
	LifeLineBorderColor #888888
	LifeLineBorderThickness 2
    DividerFontColor #555555
    DividerBorderColor #888888
    DividerBackGroundcolor #EEEEEE
}
skinparam usecase {
    borderColor white
    fontColor white
    backgroundColor #8DBF44
}
skinparam activity {
    startColor #B30C37
    endColor #B30C37
    borderColor white
    fontColor white
    backgroundColor #8DBF44
    diamondBackgroundColor #EEEEEE
    diamondBorderColor #888888
    diamondFontColor #888888
}
skinparam class {
    fontColor white
    backgroundColor white
    borderColor #8DBF44
    headerBackgroundColor #8DBF44
    headerFontColor #8DBF44
    stereotypeBorderColor #B11E3E
}
skinparam stereotype {
    cBackgroundColor physical
    cBorderColor white
    eBackgroundColor pink
    eBorderColor white
    iBackgroundColor moccasin
    iBorderColor white
    aBackgroundColor lavender
    aBorderColor white
}
skinparam state {
    attributeFontColor white
    backgroundColor #8DBF44
    fontColor white
    borderColor white
    startColor #B30C37
    endColor #B30C37
}
left to right direction
actor user
rectangle cluster {
    frame frontend as "client\n(front-end)"
    agent backend as "api\n(back-end)"
    database elastic as "elasticsearch\n(database)"
    frame kibana as "kibana\n(database UI)"
}
user - -> frontend
admin - -> frontend
admin ..> kibana : by port forwarding
frontend - -> backend
backend - -> elastic
kibana - -> elastic
@enduml

PlantUML version 1.2018.01(Sun Jan 28 18:08:22 UTC 2018)
(APACHE source distribution)
Java Runtime: OpenJDK Runtime Environment
JVM: OpenJDK 64-Bit Server VM
Java Version: 11.0.1+13-Debian-2bpo91
Operating System: Linux
OS Version: 4.14.48-coreos-r2
Default Encoding: UTF-8
Language: en
Country: null
--></g></svg>