<?xml version="1.0" encoding="UTF-8" standalone="no"?><svg xmlns="http://www.w3.org/2000/svg" xmlns:xlink="http://www.w3.org/1999/xlink" contentScriptType="application/ecmascript" contentStyleType="text/css" height="564.4509px" preserveAspectRatio="none" style="width:619px;height:564px;" version="1.1" viewBox="0 0 619 564" width="619.9422px" zoomAndPan="magnify"><defs/><g><ellipse cx="386.3272" cy="28.6127" fill="#000000" rx="8.6705" ry="8.6705" style="stroke: none; stroke-width: 0.8670520231213873;"/><rect fill="#FEFECE" height="43.3526" rx="10.8382" ry="10.8382" style="stroke: #A80036; stroke-width: 1.300578034682081;" width="61.5607" x="425.778" y="6.9364"/><line style="stroke: #A80036; stroke-width: 1.300578034682081;" x1="425.778" x2="487.3387" y1="29.7372" y2="29.7372"/><text fill="#53A3DA" font-family="sans-serif" font-size="12.1387" font-weight="bold" lengthAdjust="spacingAndGlyphs" textLength="44.2197" x="434.4486" y="22.5391">State1</text><rect fill="#FEFECE" height="43.3526" rx="10.8382" ry="10.8382" style="stroke: #A80036; stroke-width: 1.300578034682081;" width="61.5607" x="247.1653" y="117.052"/><line style="stroke: #A80036; stroke-width: 1.300578034682081;" x1="247.1653" x2="308.726" y1="139.8528" y2="139.8528"/><text fill="#53A3DA" font-family="sans-serif" font-size="12.1387" font-weight="bold" lengthAdjust="spacingAndGlyphs" textLength="44.2197" x="255.8358" y="132.6547">State2</text><ellipse cx="279.6798" cy="546.2428" fill="none" rx="8.6705" ry="8.6705" style="stroke: #000000; stroke-width: 0.8670520231213873;"/><ellipse cx="280.1133" cy="546.6763" fill="#000000" rx="5.2023" ry="5.2023" style="stroke: none; stroke-width: 0.8670520231213873;"/><rect fill="#FEFECE" height="243.899" rx="10.8382" ry="10.8382" style="stroke: #A80036; stroke-width: 1.300578034682081;" width="313.8728" x="121.0092" y="227.1676"/><rect fill="#FFFFFF" height="215.896" rx="10.8382" ry="10.8382" style="stroke: #FFFFFF; stroke-width: 0.8670520231213873;" width="308.6705" x="123.6104" y="252.5695"/><line style="stroke: #A80036; stroke-width: 1.300578034682081;" x1="121.0092" x2="434.8821" y1="249.9684" y2="249.9684"/><text fill="#53A3DA" font-family="sans-serif" font-size="12.1387" font-weight="bold" lengthAdjust="spacingAndGlyphs" textLength="44.2197" x="255.8358" y="242.7703">State3</text><rect fill="#FEFECE" height="57.7132" rx="10.8382" ry="10.8382" style="stroke: #A80036; stroke-width: 1.300578034682081;" width="187.2832" x="130.5468" y="310.662"/><line style="stroke: #A80036; stroke-width: 1.300578034682081;" x1="130.5468" x2="317.8301" y1="347.593" y2="347.593"/><text fill="#53A3DA" font-family="sans-serif" font-size="12.1387" font-weight="bold" lengthAdjust="spacingAndGlyphs" textLength="169.9422" x="139.2173" y="326.2647">Accumulate Enough Data</text><text fill="#53A3DA" font-family="sans-serif" font-size="12.1387" font-weight="bold" lengthAdjust="spacingAndGlyphs" textLength="116.185" x="166.096" y="340.395">Long State Name</text><text fill="#53A3DA" font-family="sans-serif" font-size="10.4046" font-weight="bold" lengthAdjust="spacingAndGlyphs" textLength="63.2948" x="134.8821" y="361.5861">Just a test</text><ellipse cx="224.1884" cy="269.9106" fill="#000000" rx="8.6705" ry="8.6705" style="stroke: none; stroke-width: 0.8670520231213873;"/><rect fill="#FEFECE" height="43.3526" rx="10.8382" ry="10.8382" style="stroke: #A80036; stroke-width: 1.300578034682081;" width="103.1792" x="172.5988" y="414.7083"/><line style="stroke: #A80036; stroke-width: 1.300578034682081;" x1="172.5988" x2="275.778" y1="437.509" y2="437.509"/><text fill="#53A3DA" font-family="sans-serif" font-size="12.1387" font-weight="bold" lengthAdjust="spacingAndGlyphs" textLength="85.8382" x="181.2694" y="430.311">ProcessData</text><!--link *start*State3 to long1--><path d="M224.1884,278.5854 C224.1884,285.4291 224.1884,295.8641 224.1884,306.136 " fill="none" id="*start*State3-long1" style="stroke: #53A3DA; stroke-width: 1.7341040462427746;"/><polygon fill="#53A3DA" points="224.1884,310.5181,227.6566,302.7146,224.1884,306.1828,220.7202,302.7146,224.1884,310.5181" style="stroke: #53A3DA; stroke-width: 0.8670520231213873;"/><!--link long1 to long1--><path d="M318.2029,332.8152 C327.515,334.1964 333.437,336.4941 333.437,339.7083 C333.437,342.3701 329.3757,344.4034 322.6916,345.808 " fill="none" id="long1-long1" style="stroke: #53A3DA; stroke-width: 1.7341040462427746;"/><polygon fill="#53A3DA" points="318.2029,346.6013,326.4913,348.6567,322.4718,345.8459,325.2826,341.8264,318.2029,346.6013" style="stroke: #53A3DA; stroke-width: 0.8670520231213873;"/><text fill="#53A3DA" font-family="sans-serif" font-size="11.2717" font-weight="bold" lengthAdjust="spacingAndGlyphs" textLength="62.4277" x="338.6393" y="343.668">New Data</text><!--link long1 to ProcessData--><path d="M224.1884,368.8039 C224.1884,381.8509 224.1884,397.2321 224.1884,409.9356 " fill="none" id="long1-ProcessData" style="stroke: #53A3DA; stroke-width: 1.7341040462427746;"/><polygon fill="#53A3DA" points="224.1884,414.4854,227.6566,406.682,224.1884,410.1502,220.7202,406.682,224.1884,414.4854" style="stroke: #53A3DA; stroke-width: 0.8670520231213873;"/><text fill="#53A3DA" font-family="sans-serif" font-size="11.2717" font-weight="bold" lengthAdjust="spacingAndGlyphs" textLength="82.3699" x="225.0555" y="395.6911">Enough Data</text><!--link *start to State1--><path d="M395.1061,28.6127 C403.7592,28.6127 412.4133,28.6127 421.0665,28.6127 " fill="none" id="*start-State1" style="stroke: #53A3DA; stroke-width: 1.7341040462427746;"/><polygon fill="#53A3DA" points="425.5925,28.6127,417.789,25.1445,421.2572,28.6127,417.789,32.0809,425.5925,28.6127" style="stroke: #53A3DA; stroke-width: 0.8670520231213873;"/><!--link State1 to State2--><path d="M425.446,48.3581 C394.0396,67.4159 345.626,96.7934 312.9095,116.6454 " fill="none" id="State1-State2" style="stroke: #53A3DA; stroke-width: 1.7341040462427746;"/><polygon fill="#53A3DA" points="309,119.0176,317.4704,117.9336,312.706,116.7682,313.8714,112.0039,309,119.0176" style="stroke: #53A3DA; stroke-width: 0.8670520231213873;"/><text fill="#53A3DA" font-family="sans-serif" font-size="11.2717" font-weight="bold" lengthAdjust="spacingAndGlyphs" textLength="70.2312" x="378.5237" y="87.6303">Succeeded</text><!--link State1 to *end--><path d="M468.5601,50.4936 C505.5754,118.3725 609.9251,335.2066 515.5179,470.8092 C488.8908,509.0551 337.8884,536.0488 292.5503,543.3782 " fill="none" id="State1-*end" style="stroke: #53A3DA; stroke-width: 1.7341040462427746;"/><polygon fill="#53A3DA" points="288.2618,544.0634,296.5153,546.2552,292.5427,543.3785,295.4193,539.4059,288.2618,544.0634" style="stroke: #53A3DA; stroke-width: 0.8670520231213873;"/><text fill="#53A3DA" font-family="sans-serif" font-size="11.2717" font-weight="bold" lengthAdjust="spacingAndGlyphs" textLength="52.0231" x="531.1249" y="197.7459">Aborted</text><!--link State2 to State3--><path d="M277.9457,160.7376 C277.9457,176.1876 277.9457,198.5471 277.9457,222.4769 " fill="none" id="State2-State3" style="stroke: #53A3DA; stroke-width: 1.7341040462427746;"/><polygon fill="#53A3DA" points="277.9457,226.9621,281.4139,219.1587,277.9457,222.6269,274.4775,219.1587,277.9457,226.9621" style="stroke: #53A3DA; stroke-width: 0.8670520231213873;"/><text fill="#53A3DA" font-family="sans-serif" font-size="11.2717" font-weight="bold" lengthAdjust="spacingAndGlyphs" textLength="70.2312" x="278.8127" y="197.7459">Succeeded</text><!--link State2 to *end--><path d="M246.7847,141.124 C195.8653,145.5 96.0581,162.3581 51.645,227.1676 C-9.5676,316.4913 -10.8802,382.3994 51.645,470.8092 C102.6043,542.8657 225.4249,546.7248 266.2396,545.9152 " fill="none" id="State2-*end" style="stroke: #53A3DA; stroke-width: 1.7341040462427746;"/><polygon fill="#53A3DA" points="270.8003,545.7975,262.9102,542.5311,266.4665,545.909,263.0886,549.4653,270.8003,545.7975" style="stroke: #53A3DA; stroke-width: 0.8670520231213873;"/><text fill="#53A3DA" font-family="sans-serif" font-size="11.2717" font-weight="bold" lengthAdjust="spacingAndGlyphs" textLength="52.0231" x="52.5121" y="352.9482">Aborted</text><!--link State3 to State3--><path d="M435.0624,324.2913 C453.339,328.8494 465.2289,337.0821 465.2289,348.9884 C465.2289,359.8717 455.2942,367.6855 439.6292,372.4292 " fill="none" id="State3-State3" style="stroke: #53A3DA; stroke-width: 1.7341040462427746;"/><polygon fill="#53A3DA" points="435.0624,373.6855,443.5061,374.9608,439.2425,372.5362,441.6671,368.2726,435.0624,373.6855" style="stroke: #53A3DA; stroke-width: 0.8670520231213873;"/><text fill="#53A3DA" font-family="sans-serif" font-size="11.2717" font-weight="bold" lengthAdjust="spacingAndGlyphs" textLength="39.0173" x="470.4312" y="352.9482">Failed</text><!--link State3 to *end--><path d="M170.9055,470.8451 C168.45,484.7809 170.6939,498.6214 179.9688,511.5607 C199.9526,539.4397 244.2156,544.6164 266.426,545.3934 " fill="none" id="State3-*end" style="stroke: #53A3DA; stroke-width: 1.7341040462427746;"/><polygon fill="#53A3DA" points="270.8142,545.499,263.0962,541.8445,266.4802,545.395,262.9297,548.7789,270.8142,545.499" style="stroke: #53A3DA; stroke-width: 0.8670520231213873;"/><text fill="#53A3DA" font-family="sans-serif" font-size="11.2717" font-weight="bold" lengthAdjust="spacingAndGlyphs" textLength="157.8035" x="180.8358" y="508.1505">Succeeded / Save Result</text><!--link State3 to *end--><path d="M336.0702,470.8542 C338.8023,479.5141 341.1572,488.222 342.9746,496.8208 C344.3289,503.2302 346.3431,505.942 342.9746,511.5607 C332.0601,529.7659 307.6387,538.7166 292.5225,542.6674 " fill="none" id="State3-*end" style="stroke: #53A3DA; stroke-width: 1.7341040462427746;"/><polygon fill="#53A3DA" points="288.1552,543.7378,296.5599,545.2491,292.3659,542.706,294.909,538.512,288.1552,543.7378" style="stroke: #53A3DA; stroke-width: 0.8670520231213873;"/><text fill="#53A3DA" font-family="sans-serif" font-size="11.2717" font-weight="bold" lengthAdjust="spacingAndGlyphs" textLength="52.0231" x="345.5757" y="508.1505">Aborted</text><!--
@startuml

skinparam backgroundColor transparent
skinparam defaultFontColor #53A3DA
skinparam defaultFontStyle bold
skinparam arrowColor #53A3DA
skinparam arrowThickness 2
skinparam shadowing false

skinparam actor {
    borderColor #EF525B
    backgroundColor #EF525B
    fontColor #EF525B
}
skinparam agent {
    borderColor white
    backGroundcolor #8DBF44
    fontColor white
}
skinparam database {
    borderColor white
    backGroundcolor #8DBF44
    fontColor white
} 
skinparam rectangle {
    borderColor #888888
    backGroundcolor #EEEEEE
    fontColor #888888
}
skinparam cloud {
    borderColor #888888
    backGroundcolor #EEEEEE
    fontColor #888888
}
skinparam folder {
    borderColor #888888
    backGroundcolor #EEEEEE
    fontColor #888888
}
skinparam package {
    borderColor #888888
    backGroundcolor #EEEEEE
    fontColor #888888
}
skinparam frame {
    borderColor #888888
    backGroundcolor #EEEEEE
    fontColor #888888
}
skinparam component {
    borderColor white
    backGroundcolor #8DBF44
    fontColor white
}
skinparam artifact {
    borderColor white
    backGroundcolor #8DBF44
    fontColor white
}
skinparam node {
    borderColor white
    backGroundcolor #8DBF44
    fontColor white
}
skinparam queue {
    borderColor white
    backGroundcolor #8DBF44
    fontColor white
}
skinparam file {
    borderColor white
    backGroundcolor #8DBF44
    fontColor white
}
skinparam storage {
    borderColor white
    backGroundcolor #8DBF44
    fontColor white
}
skinparam interface {
    borderColor #B11E3E
    backGroundcolor #EF525B
}
skinparam boundary {
    borderColor #B11E3E
    backGroundcolor #EF525B
}
skinparam entity {
    borderColor #B11E3E
    backGroundcolor #EF525B
}
skinparam control {
    borderColor #B11E3E
    backGroundcolor #EF525B
}
skinparam sequence {
    BoxFontColor white
    participant {
        FontColor white
        BackgroundColor #8DBF44
        BorderColor white
    }
    lifeLine {
	    BorderColor #B11E3E
	    BorderThickness 1
	    BackgroundColor #FFFFFF
	}
    divider {
        FontColor #555555
        BorderColor #555555
        BackGroundcolor #EEEEEE
    }
}
skinparam usecase {
    borderColor white
    fontColor white
    backgroundColor #8DBF44
}
skinparam activity {
    startColor #B11E3E
    endColor #B11E3E
    borderColor white
    fontColor white
    backgroundColor #8DBF44
    diamond {
        backgroundColor #EEEEEE
        borderColor #888888
        fontColor #888888
    }
}
scale 600 width

[*] -> State1
State1 - -> State2 : Succeeded
State1 - -> [*] : Aborted
State2 - -> State3 : Succeeded
State2 - -> [*] : Aborted
state State3 {
  state "Accumulate Enough Data\nLong State Name" as long1
  long1 : Just a test
  [*] - -> long1
  long1 - -> long1 : New Data
  long1 - -> ProcessData : Enough Data
}
State3 - -> State3 : Failed
State3 - -> [*] : Succeeded / Save Result
State3 - -> [*] : Aborted
@enduml

PlantUML version 1.2018.01(Sun Jan 28 18:08:22 UTC 2018)
(APACHE source distribution)
Java Runtime: OpenJDK Runtime Environment
JVM: OpenJDK 64-Bit Server VM
Java Version: 1.8.0_181-8u181-b13-2~deb9u1-b13
Operating System: Linux
OS Version: 4.14.48-coreos-r2
Default Encoding: UTF-8
Language: en
Country: null
--></g></svg>