<?xml version="1.0" encoding="UTF-8" standalone="no"?><svg xmlns="http://www.w3.org/2000/svg" xmlns:xlink="http://www.w3.org/1999/xlink" contentScriptType="application/ecmascript" contentStyleType="text/css" height="904px" preserveAspectRatio="none" style="width:525px;height:904px;" version="1.1" viewBox="0 0 525 904" width="525px" zoomAndPan="magnify"><defs/><g><ellipse cx="206.5" cy="20" fill="#B11E3E" rx="10" ry="10" style="stroke: none; stroke-width: 1.0;"/><rect fill="#8DBF44" height="33.9688" rx="12.5" ry="12.5" style="stroke: #FFFFFF; stroke-width: 1.5;" width="225" x="94" y="50"/><text fill="#FFFFFF" font-family="sans-serif" font-size="12" font-weight="bold" lengthAdjust="spacingAndGlyphs" textLength="205" x="104" y="71.1387">ClickServlet.handleRequest()</text><rect fill="#8DBF44" height="33.9688" rx="12.5" ry="12.5" style="stroke: #FFFFFF; stroke-width: 1.5;" width="90" x="161.5" y="103.9688"/><text fill="#FFFFFF" font-family="sans-serif" font-size="12" font-weight="bold" lengthAdjust="spacingAndGlyphs" textLength="70" x="171.5" y="125.1074">new page</text><rect fill="#8DBF44" height="33.9688" rx="12.5" ry="12.5" style="stroke: #FFFFFF; stroke-width: 1.5;" width="112" x="150.5" y="206.3398"/><text fill="#FFFFFF" font-family="sans-serif" font-size="12" font-weight="bold" lengthAdjust="spacingAndGlyphs" textLength="92" x="160.5" y="227.4785">Page.onInit()</text><rect fill="#8DBF44" height="33.9688" rx="12.5" ry="12.5" style="stroke: #FFFFFF; stroke-width: 1.5;" width="138" x="137.5" y="308.7109"/><text fill="#FFFFFF" font-family="sans-serif" font-size="12" font-weight="bold" lengthAdjust="spacingAndGlyphs" textLength="118" x="147.5" y="329.8496">Process controls</text><polygon fill="#EEEEEE" points="138.5,362.6797,274.5,362.6797,286.5,374.6797,274.5,386.6797,138.5,386.6797,126.5,374.6797,138.5,362.6797" style="stroke: #888888; stroke-width: 1.5;"/><text fill="#888888" font-family="sans-serif" font-size="11" font-weight="bold" lengthAdjust="spacingAndGlyphs" textLength="136" x="138.5" y="378.4878">continue processing?</text><text fill="#53A3DA" font-family="sans-serif" font-size="11" font-weight="bold" lengthAdjust="spacingAndGlyphs" textLength="16" x="286.5" y="372.0854">no</text><ellipse cx="322.5" cy="374.6797" fill="none" rx="10" ry="10" style="stroke: #B11E3E; stroke-width: 1.0;"/><ellipse cx="323" cy="375.1797" fill="#B11E3E" rx="6" ry="6" style="stroke: none; stroke-width: 1.0;"/><polygon fill="#EEEEEE" points="184,431.1953,229,431.1953,241,443.1953,229,455.1953,184,455.1953,172,443.1953,184,431.1953" style="stroke: #888888; stroke-width: 1.5;"/><text fill="#888888" font-family="sans-serif" font-size="11" font-weight="bold" lengthAdjust="spacingAndGlyphs" textLength="45" x="184" y="447.0034">isPost?</text><text fill="#53A3DA" font-family="sans-serif" font-size="11" font-weight="bold" lengthAdjust="spacingAndGlyphs" textLength="22" x="150" y="440.6011">yes</text><text fill="#53A3DA" font-family="sans-serif" font-size="11" font-weight="bold" lengthAdjust="spacingAndGlyphs" textLength="16" x="241" y="440.6011">no</text><rect fill="#8DBF44" height="33.9688" rx="12.5" ry="12.5" style="stroke: #FFFFFF; stroke-width: 1.5;" width="121" x="77.25" y="465.1953"/><text fill="#FFFFFF" font-family="sans-serif" font-size="12" font-weight="bold" lengthAdjust="spacingAndGlyphs" textLength="101" x="87.25" y="486.334">Page.onPost()</text><rect fill="#8DBF44" height="33.9688" rx="12.5" ry="12.5" style="stroke: #FFFFFF; stroke-width: 1.5;" width="114" x="218.25" y="465.1953"/><text fill="#FFFFFF" font-family="sans-serif" font-size="12" font-weight="bold" lengthAdjust="spacingAndGlyphs" textLength="94" x="228.25" y="486.334">Page.onGet()</text><polygon fill="#EEEEEE" points="206.5,505.1641,218.5,517.1641,206.5,529.1641,194.5,517.1641,206.5,505.1641" style="stroke: #888888; stroke-width: 1.5;"/><rect fill="#8DBF44" height="33.9688" rx="12.5" ry="12.5" style="stroke: #FFFFFF; stroke-width: 1.5;" width="140" x="136.5" y="549.1641"/><text fill="#FFFFFF" font-family="sans-serif" font-size="12" font-weight="bold" lengthAdjust="spacingAndGlyphs" textLength="120" x="146.5" y="570.3027">Page.onRender()</text><polygon fill="#EEEEEE" points="171.5,260.3086,241.5,260.3086,253.5,272.3086,241.5,284.3086,171.5,284.3086,159.5,272.3086,171.5,260.3086" style="stroke: #888888; stroke-width: 1.5;"/><text fill="#53A3DA" font-family="sans-serif" font-size="11" font-weight="bold" lengthAdjust="spacingAndGlyphs" textLength="16" x="210.5" y="294.519">no</text><text fill="#888888" font-family="sans-serif" font-size="11" font-weight="bold" lengthAdjust="spacingAndGlyphs" textLength="70" x="171.5" y="276.1167">isForward?</text><polygon fill="#EEEEEE" points="206.5,603.1328,218.5,615.1328,206.5,627.1328,194.5,615.1328,206.5,603.1328" style="stroke: #888888; stroke-width: 1.5;"/><polygon fill="#EEEEEE" points="135,157.9375,278,157.9375,290,169.9375,278,181.9375,135,181.9375,123,169.9375,135,157.9375" style="stroke: #888888; stroke-width: 1.5;"/><text fill="#53A3DA" font-family="sans-serif" font-size="11" font-weight="bold" lengthAdjust="spacingAndGlyphs" textLength="26" x="210.5" y="192.1479">true</text><text fill="#888888" font-family="sans-serif" font-size="11" font-weight="bold" lengthAdjust="spacingAndGlyphs" textLength="143" x="135" y="173.7456">Page.onSecurityCheck</text><text fill="#53A3DA" font-family="sans-serif" font-size="11" font-weight="bold" lengthAdjust="spacingAndGlyphs" textLength="32" x="290" y="167.3433">false</text><polygon fill="#EEEEEE" points="206.5,647.1328,218.5,659.1328,206.5,671.1328,194.5,659.1328,206.5,647.1328" style="stroke: #888888; stroke-width: 1.5;"/><polygon fill="#EEEEEE" points="168.5,691.1328,244.5,691.1328,256.5,703.1328,244.5,715.1328,168.5,715.1328,156.5,703.1328,168.5,691.1328" style="stroke: #888888; stroke-width: 1.5;"/><text fill="#888888" font-family="sans-serif" font-size="11" font-weight="bold" lengthAdjust="spacingAndGlyphs" textLength="76" x="168.5" y="706.9409">do redirect?</text><text fill="#53A3DA" font-family="sans-serif" font-size="11" font-weight="bold" lengthAdjust="spacingAndGlyphs" textLength="22" x="134.5" y="700.5386">yes</text><rect fill="#8DBF44" height="33.9688" rx="12.5" ry="12.5" style="stroke: #FFFFFF; stroke-width: 1.5;" width="136" x="10" y="725.1328"/><text fill="#FFFFFF" font-family="sans-serif" font-size="12" font-weight="bold" lengthAdjust="spacingAndGlyphs" textLength="116" x="20" y="746.2715">redirect process</text><polygon fill="#EEEEEE" points="297,725.1328,373,725.1328,385,737.1328,373,749.1328,297,749.1328,285,737.1328,297,725.1328" style="stroke: #888888; stroke-width: 1.5;"/><text fill="#888888" font-family="sans-serif" font-size="11" font-weight="bold" lengthAdjust="spacingAndGlyphs" textLength="76" x="297" y="740.9409">do forward?</text><text fill="#53A3DA" font-family="sans-serif" font-size="11" font-weight="bold" lengthAdjust="spacingAndGlyphs" textLength="22" x="263" y="734.5386">yes</text><text fill="#53A3DA" font-family="sans-serif" font-size="11" font-weight="bold" lengthAdjust="spacingAndGlyphs" textLength="16" x="385" y="734.5386">no</text><rect fill="#8DBF44" height="33.9688" rx="12.5" ry="12.5" style="stroke: #FFFFFF; stroke-width: 1.5;" width="139" x="176" y="759.1328"/><text fill="#FFFFFF" font-family="sans-serif" font-size="12" font-weight="bold" lengthAdjust="spacingAndGlyphs" textLength="119" x="186" y="780.2715">Forward request</text><rect fill="#8DBF44" height="33.9688" rx="12.5" ry="12.5" style="stroke: #FFFFFF; stroke-width: 1.5;" width="179" x="335" y="759.1328"/><text fill="#FFFFFF" font-family="sans-serif" font-size="12" font-weight="bold" lengthAdjust="spacingAndGlyphs" textLength="159" x="345" y="780.2715">Render page template</text><polygon fill="#EEEEEE" points="335,799.1016,347,811.1016,335,823.1016,323,811.1016,335,799.1016" style="stroke: #888888; stroke-width: 1.5;"/><polygon fill="#EEEEEE" points="206.5,829.1016,218.5,841.1016,206.5,853.1016,194.5,841.1016,206.5,829.1016" style="stroke: #888888; stroke-width: 1.5;"/><ellipse cx="206.5" cy="883.1016" fill="none" rx="10" ry="10" style="stroke: #B11E3E; stroke-width: 1.0;"/><ellipse cx="207" cy="883.6016" fill="#B11E3E" rx="6" ry="6" style="stroke: none; stroke-width: 1.0;"/><line style="stroke: #53A3DA; stroke-width: 1.5;" x1="206.5" x2="206.5" y1="30" y2="50"/><polygon fill="#53A3DA" points="202.5,40,206.5,50,210.5,40,206.5,44" style="stroke: #53A3DA; stroke-width: 1.0;"/><line style="stroke: #53A3DA; stroke-width: 1.5;" x1="206.5" x2="206.5" y1="83.9688" y2="103.9688"/><polygon fill="#53A3DA" points="202.5,93.9688,206.5,103.9688,210.5,93.9688,206.5,97.9688" style="stroke: #53A3DA; stroke-width: 1.0;"/><line style="stroke: #53A3DA; stroke-width: 1.5;" x1="206.5" x2="206.5" y1="386.6797" y2="431.1953"/><polygon fill="#53A3DA" points="202.5,421.1953,206.5,431.1953,210.5,421.1953,206.5,425.1953" style="stroke: #53A3DA; stroke-width: 1.0;"/><line style="stroke: #53A3DA; stroke-width: 1.5;" x1="286.5" x2="312.5" y1="374.6797" y2="374.6797"/><polygon fill="#53A3DA" points="302.5,370.6797,312.5,374.6797,302.5,378.6797,306.5,374.6797" style="stroke: #53A3DA; stroke-width: 1.0;"/><line style="stroke: #53A3DA; stroke-width: 1.5;" x1="206.5" x2="206.5" y1="342.6797" y2="362.6797"/><polygon fill="#53A3DA" points="202.5,352.6797,206.5,362.6797,210.5,352.6797,206.5,356.6797" style="stroke: #53A3DA; stroke-width: 1.0;"/><line style="stroke: #53A3DA; stroke-width: 1.5;" x1="172" x2="137.75" y1="443.1953" y2="443.1953"/><line style="stroke: #53A3DA; stroke-width: 1.5;" x1="137.75" x2="137.75" y1="443.1953" y2="465.1953"/><polygon fill="#53A3DA" points="133.75,455.1953,137.75,465.1953,141.75,455.1953,137.75,459.1953" style="stroke: #53A3DA; stroke-width: 1.0;"/><line style="stroke: #53A3DA; stroke-width: 1.5;" x1="241" x2="275.25" y1="443.1953" y2="443.1953"/><line style="stroke: #53A3DA; stroke-width: 1.5;" x1="275.25" x2="275.25" y1="443.1953" y2="465.1953"/><polygon fill="#53A3DA" points="271.25,455.1953,275.25,465.1953,279.25,455.1953,275.25,459.1953" style="stroke: #53A3DA; stroke-width: 1.0;"/><line style="stroke: #53A3DA; stroke-width: 1.5;" x1="137.75" x2="137.75" y1="499.1641" y2="517.1641"/><line style="stroke: #53A3DA; stroke-width: 1.5;" x1="137.75" x2="194.5" y1="517.1641" y2="517.1641"/><polygon fill="#53A3DA" points="184.5,513.1641,194.5,517.1641,184.5,521.1641,188.5,517.1641" style="stroke: #53A3DA; stroke-width: 1.0;"/><line style="stroke: #53A3DA; stroke-width: 1.5;" x1="275.25" x2="275.25" y1="499.1641" y2="517.1641"/><line style="stroke: #53A3DA; stroke-width: 1.5;" x1="275.25" x2="218.5" y1="517.1641" y2="517.1641"/><polygon fill="#53A3DA" points="228.5,513.1641,218.5,517.1641,228.5,521.1641,224.5,517.1641" style="stroke: #53A3DA; stroke-width: 1.0;"/><line style="stroke: #53A3DA; stroke-width: 1.5;" x1="206.5" x2="206.5" y1="529.1641" y2="549.1641"/><polygon fill="#53A3DA" points="202.5,539.1641,206.5,549.1641,210.5,539.1641,206.5,543.1641" style="stroke: #53A3DA; stroke-width: 1.0;"/><line style="stroke: #53A3DA; stroke-width: 1.5;" x1="206.5" x2="206.5" y1="284.3086" y2="308.7109"/><polygon fill="#53A3DA" points="202.5,298.7109,206.5,308.7109,210.5,298.7109,206.5,302.7109" style="stroke: #53A3DA; stroke-width: 1.0;"/><line style="stroke: #53A3DA; stroke-width: 1.5;" x1="253.5" x2="354.5" y1="272.3086" y2="272.3086"/><polygon fill="#53A3DA" points="350.5,416.6797,354.5,426.6797,358.5,416.6797,354.5,420.6797" style="stroke: #53A3DA; stroke-width: 1.5;"/><line style="stroke: #53A3DA; stroke-width: 1.5;" x1="354.5" x2="354.5" y1="272.3086" y2="615.1328"/><line style="stroke: #53A3DA; stroke-width: 1.5;" x1="354.5" x2="218.5" y1="615.1328" y2="615.1328"/><polygon fill="#53A3DA" points="228.5,611.1328,218.5,615.1328,228.5,619.1328,224.5,615.1328" style="stroke: #53A3DA; stroke-width: 1.0;"/><line style="stroke: #53A3DA; stroke-width: 1.5;" x1="206.5" x2="206.5" y1="583.1328" y2="603.1328"/><polygon fill="#53A3DA" points="202.5,593.1328,206.5,603.1328,210.5,593.1328,206.5,597.1328" style="stroke: #53A3DA; stroke-width: 1.0;"/><line style="stroke: #53A3DA; stroke-width: 1.5;" x1="206.5" x2="206.5" y1="240.3086" y2="260.3086"/><polygon fill="#53A3DA" points="202.5,250.3086,206.5,260.3086,210.5,250.3086,206.5,254.3086" style="stroke: #53A3DA; stroke-width: 1.0;"/><line style="stroke: #53A3DA; stroke-width: 1.5;" x1="206.5" x2="206.5" y1="181.9375" y2="206.3398"/><polygon fill="#53A3DA" points="202.5,196.3398,206.5,206.3398,210.5,196.3398,206.5,200.3398" style="stroke: #53A3DA; stroke-width: 1.0;"/><line style="stroke: #53A3DA; stroke-width: 1.5;" x1="290" x2="376.5" y1="169.9375" y2="169.9375"/><polygon fill="#53A3DA" points="372.5,396.6797,376.5,406.6797,380.5,396.6797,376.5,400.6797" style="stroke: #53A3DA; stroke-width: 1.5;"/><line style="stroke: #53A3DA; stroke-width: 1.5;" x1="376.5" x2="376.5" y1="169.9375" y2="659.1328"/><line style="stroke: #53A3DA; stroke-width: 1.5;" x1="376.5" x2="218.5" y1="659.1328" y2="659.1328"/><polygon fill="#53A3DA" points="228.5,655.1328,218.5,659.1328,228.5,663.1328,224.5,659.1328" style="stroke: #53A3DA; stroke-width: 1.0;"/><line style="stroke: #53A3DA; stroke-width: 1.5;" x1="206.5" x2="206.5" y1="627.1328" y2="647.1328"/><polygon fill="#53A3DA" points="202.5,637.1328,206.5,647.1328,210.5,637.1328,206.5,641.1328" style="stroke: #53A3DA; stroke-width: 1.0;"/><line style="stroke: #53A3DA; stroke-width: 1.5;" x1="206.5" x2="206.5" y1="137.9375" y2="157.9375"/><polygon fill="#53A3DA" points="202.5,147.9375,206.5,157.9375,210.5,147.9375,206.5,151.9375" style="stroke: #53A3DA; stroke-width: 1.0;"/><line style="stroke: #53A3DA; stroke-width: 1.5;" x1="285" x2="245.5" y1="737.1328" y2="737.1328"/><line style="stroke: #53A3DA; stroke-width: 1.5;" x1="245.5" x2="245.5" y1="737.1328" y2="759.1328"/><polygon fill="#53A3DA" points="241.5,749.1328,245.5,759.1328,249.5,749.1328,245.5,753.1328" style="stroke: #53A3DA; stroke-width: 1.0;"/><line style="stroke: #53A3DA; stroke-width: 1.5;" x1="385" x2="424.5" y1="737.1328" y2="737.1328"/><line style="stroke: #53A3DA; stroke-width: 1.5;" x1="424.5" x2="424.5" y1="737.1328" y2="759.1328"/><polygon fill="#53A3DA" points="420.5,749.1328,424.5,759.1328,428.5,749.1328,424.5,753.1328" style="stroke: #53A3DA; stroke-width: 1.0;"/><line style="stroke: #53A3DA; stroke-width: 1.5;" x1="245.5" x2="245.5" y1="793.1016" y2="811.1016"/><line style="stroke: #53A3DA; stroke-width: 1.5;" x1="245.5" x2="323" y1="811.1016" y2="811.1016"/><polygon fill="#53A3DA" points="313,807.1016,323,811.1016,313,815.1016,317,811.1016" style="stroke: #53A3DA; stroke-width: 1.0;"/><line style="stroke: #53A3DA; stroke-width: 1.5;" x1="424.5" x2="424.5" y1="793.1016" y2="811.1016"/><line style="stroke: #53A3DA; stroke-width: 1.5;" x1="424.5" x2="347" y1="811.1016" y2="811.1016"/><polygon fill="#53A3DA" points="357,807.1016,347,811.1016,357,815.1016,353,811.1016" style="stroke: #53A3DA; stroke-width: 1.0;"/><line style="stroke: #53A3DA; stroke-width: 1.5;" x1="156.5" x2="78" y1="703.1328" y2="703.1328"/><line style="stroke: #53A3DA; stroke-width: 1.5;" x1="78" x2="78" y1="703.1328" y2="725.1328"/><polygon fill="#53A3DA" points="74,715.1328,78,725.1328,82,715.1328,78,719.1328" style="stroke: #53A3DA; stroke-width: 1.0;"/><line style="stroke: #53A3DA; stroke-width: 1.5;" x1="256.5" x2="335" y1="703.1328" y2="703.1328"/><line style="stroke: #53A3DA; stroke-width: 1.5;" x1="335" x2="335" y1="703.1328" y2="725.1328"/><polygon fill="#53A3DA" points="331,715.1328,335,725.1328,339,715.1328,335,719.1328" style="stroke: #53A3DA; stroke-width: 1.0;"/><line style="stroke: #53A3DA; stroke-width: 1.5;" x1="78" x2="78" y1="759.1016" y2="841.1016"/><line style="stroke: #53A3DA; stroke-width: 1.5;" x1="78" x2="194.5" y1="841.1016" y2="841.1016"/><polygon fill="#53A3DA" points="184.5,837.1016,194.5,841.1016,184.5,845.1016,188.5,841.1016" style="stroke: #53A3DA; stroke-width: 1.0;"/><line style="stroke: #53A3DA; stroke-width: 1.5;" x1="335" x2="335" y1="823.1016" y2="841.1016"/><line style="stroke: #53A3DA; stroke-width: 1.5;" x1="335" x2="218.5" y1="841.1016" y2="841.1016"/><polygon fill="#53A3DA" points="228.5,837.1016,218.5,841.1016,228.5,845.1016,224.5,841.1016" style="stroke: #53A3DA; stroke-width: 1.0;"/><line style="stroke: #53A3DA; stroke-width: 1.5;" x1="206.5" x2="206.5" y1="671.1328" y2="691.1328"/><polygon fill="#53A3DA" points="202.5,681.1328,206.5,691.1328,210.5,681.1328,206.5,685.1328" style="stroke: #53A3DA; stroke-width: 1.0;"/><line style="stroke: #53A3DA; stroke-width: 1.5;" x1="206.5" x2="206.5" y1="853.1016" y2="873.1016"/><polygon fill="#53A3DA" points="202.5,863.1016,206.5,873.1016,210.5,863.1016,206.5,867.1016" style="stroke: #53A3DA; stroke-width: 1.0;"/><!--
@startuml

skinparam backgroundColor transparent
skinparam defaultFontColor #53A3DA
skinparam defaultFontStyle bold
skinparam arrowColor #53A3DA
skinparam arrowThickness 2
skinparam shadowing false

skinparam actor {
    borderColor #EF525B
    backgroundColor #EF525B
    fontColor #EF525B
}
skinparam agent {
    borderColor white
    backGroundcolor #8DBF44
    fontColor white
}
skinparam database {
    borderColor white
    backGroundcolor #8DBF44
    fontColor white
} 
skinparam rectangle {
    borderColor #888888
    backGroundcolor #EEEEEE
    fontColor #888888
}
skinparam cloud {
    borderColor #888888
    backGroundcolor #EEEEEE
    fontColor #888888
}
skinparam folder {
    borderColor #888888
    backGroundcolor #EEEEEE
    fontColor #888888
}
skinparam package {
    borderColor #888888
    backGroundcolor #EEEEEE
    fontColor #888888
}
skinparam frame {
    borderColor #888888
    backGroundcolor #EEEEEE
    fontColor #888888
}
skinparam component {
    borderColor white
    backGroundcolor #8DBF44
    fontColor white
}
skinparam artifact {
    borderColor white
    backGroundcolor #8DBF44
    fontColor white
}
skinparam node {
    borderColor white
    backGroundcolor #8DBF44
    fontColor white
}
skinparam queue {
    borderColor white
    backGroundcolor #8DBF44
    fontColor white
}
skinparam file {
    borderColor white
    backGroundcolor #8DBF44
    fontColor white
}
skinparam storage {
    borderColor white
    backGroundcolor #8DBF44
    fontColor white
}
skinparam interface {
    borderColor #B11E3E
    backGroundcolor #EF525B
}
skinparam boundary {
    borderColor #B11E3E
    backGroundcolor #EF525B
}
skinparam entity {
    borderColor #B11E3E
    backGroundcolor #EF525B
}
skinparam control {
    borderColor #B11E3E
    backGroundcolor #EF525B
}
skinparam sequence {
    BoxFontColor white
    participant {
        FontColor white
        BackgroundColor #8DBF44
        BorderColor white
    }
    lifeLine {
	    BorderColor #B11E3E
	    BorderThickness 1
	    BackgroundColor #FFFFFF
	}
    divider {
        FontColor #555555
        BorderColor #555555
        BackGroundcolor #EEEEEE
    }
}
skinparam usecase {
    borderColor white
    fontColor white
    backgroundColor #8DBF44
}
skinparam activity {
    startColor #B11E3E
    endColor #B11E3E
    borderColor white
    fontColor white
    backgroundColor #8DBF44
    diamond {
        backgroundColor #EEEEEE
        borderColor #888888
        fontColor #888888
    }
}
start
:ClickServlet.handleRequest();
:new page;
if (Page.onSecurityCheck) then (true)
  :Page.onInit();
  if (isForward?) then (no)
    :Process controls;
    if (continue processing?) then (no)
      stop
    endif

    if (isPost?) then (yes)
      :Page.onPost();
    else (no)
      :Page.onGet();
    endif
    :Page.onRender();
  endif
else (false)
endif

if (do redirect?) then (yes)
  :redirect process;
else
  if (do forward?) then (yes)
    :Forward request;
  else (no)
    :Render page template;
  endif
endif

stop
@enduml

PlantUML version 1.2018.01(Sun Jan 28 18:08:22 UTC 2018)
(APACHE source distribution)
Java Runtime: OpenJDK Runtime Environment
JVM: OpenJDK 64-Bit Server VM
Java Version: 1.8.0_181-8u181-b13-2~deb9u1-b13
Operating System: Linux
OS Version: 4.14.48-coreos-r2
Default Encoding: UTF-8
Language: en
Country: null
--></g></svg>