<?xml version="1.0" encoding="UTF-8" standalone="no"?><svg xmlns="http://www.w3.org/2000/svg" xmlns:xlink="http://www.w3.org/1999/xlink" contentScriptType="application/ecmascript" contentStyleType="text/css" height="582px" preserveAspectRatio="none" style="width:543px;height:582px;" version="1.1" viewBox="0 0 543 582" width="543px" zoomAndPan="magnify"><defs/><g><!--cluster Some Group--><polygon fill="#EEEEEE" points="22,24,126,24,133,46.2969,512,46.2969,512,133,22,133,22,24" style="stroke: #888888; stroke-width: 1.5;"/><line style="stroke: #888888; stroke-width: 1.5;" x1="22" x2="133" y1="46.2969" y2="46.2969"/><text fill="#888888" font-family="sans-serif" font-size="14" font-weight="bold" lengthAdjust="spacingAndGlyphs" textLength="98" x="26" y="38.9951">Some Group</text><!--cluster Other Groups--><rect fill="#EEEEEE" height="109" style="stroke: #888888; stroke-width: 1.5;" width="297" x="46" y="157"/><text fill="#888888" font-family="sans-serif" font-size="14" font-weight="bold" lengthAdjust="spacingAndGlyphs" textLength="108" x="140.5" y="171.9951">Other Groups</text><path d="M370,194 C370,191 372,189 375,189 C378,189 380,191 380,194 C380,191 382,189 385,189 C388,189 390,191 390,194 C390,191 392,189 395,189 C398,189 400,191 400,194 C400,191 402,189 405,189 C408,189 410,191 410,194 C410,191 412,189 415,189 C418,189 420,191 420,194 C420,191 422,189 425,189 C428,189 430,191 430,194 C430,191 432,189 435,189 C438,189 440,191 440,194 C440,191 442,189 445,189 C448,189 450,191 450,194 C450,191 452,189 455,189 C458,189 460,191 460,194 C460,191 462,189 465,189 C468,189 470,191 470,194 C470,191 472,189 475,189 C478,189 480,191 480,194 C480,191 482,189 485,189 C488,189 490,191 490,194 C490,191 492,189 495,189 C498,189 500,191 500,194 C503,194 505,196 505,199 C505,202 503,204 500,204 C503,204 505,206 505,209 C505,212 503,214 500,214 C503,214 505,216 505,219 C505,222 503,224 500,224 C503,224 505,226 505,229 C505,232 503,234 500,234 C503,234 505,236 505,239 C505,242 503,244 500,244 C500,247 497,249 495,249 C492,249 490,247 490,244 C490,247 487,249 485,249 C482,249 480,247 480,244 C480,247 477,249 475,249 C472,249 470,247 470,244 C470,247 467,249 465,249 C462,249 460,247 460,244 C460,247 457,249 455,249 C452,249 450,247 450,244 C450,247 447,249 445,249 C442,249 440,247 440,244 C440,247 437,249 435,249 C432,249 430,247 430,244 C430,247 427,249 425,249 C422,249 420,247 420,244 C420,247 417,249 415,249 C412,249 410,247 410,244 C410,247 407,249 405,249 C402,249 400,247 400,244 C400,247 397,249 395,249 C392,249 390,247 390,244 C390,247 387,249 385,249 C382,249 380,247 380,244 C380,247 377,249 375,249 C372,249 370,247 370,244 C367,244 365,242 365,239 C365,236 367,234 370,234 C367,234 365,232 365,229 C365,226 367,224 370,224 C367,224 365,222 365,219 C365,216 367,214 370,214 C367,214 365,212 365,209 C365,206 367,204 370,204 C367,204 365,202 365,199 C365,196 367,194 370,194 " fill="#EEEEEE" style="stroke: #888888; stroke-width: 1.5;"/><!--cluster MySql--><path d="M336,300 C336,290 433.5,290 433.5,290 C433.5,290 531,290 531,300 L531,560 C531,570 433.5,570 433.5,570 C433.5,570 336,570 336,560 L336,300 " fill="#8DBF44" style="stroke: #FFFFFF; stroke-width: 1.5;"/><path d="M336,300 C336,310 433.5,310 433.5,310 C433.5,310 531,310 531,300 " fill="none" style="stroke: #FFFFFF; stroke-width: 1.5;"/><text fill="#FFFFFF" font-family="sans-serif" font-size="14" font-weight="bold" lengthAdjust="spacingAndGlyphs" textLength="46" x="410.5" y="323.9951">MySql</text><!--cluster This is my folder--><polygon fill="#EEEEEE" points="360,348,497,348,504,370.2969,507,370.2969,507,435,360,435,360,348" style="stroke: #888888; stroke-width: 1.5;"/><line style="stroke: #888888; stroke-width: 1.5;" x1="360" x2="504" y1="370.2969" y2="370.2969"/><text fill="#888888" font-family="sans-serif" font-size="14" font-weight="bold" lengthAdjust="spacingAndGlyphs" textLength="131" x="364" y="362.9951">This is my folder</text><!--cluster Foo--><rect fill="#EEEEEE" height="87" style="stroke: #888888; stroke-width: 1.5;" width="116" x="375" y="459"/><path d="M414,460 L414,468.2969 L404,478.2969 L375,478.2969 " fill="none" style="stroke: #888888; stroke-width: 1.5;"/><text fill="#888888" font-family="sans-serif" font-size="14" font-weight="bold" lengthAdjust="spacingAndGlyphs" textLength="29" x="378" y="472.9951">Foo</text><!--entity HTTP--><ellipse cx="253" cy="88" fill="#EF525B" rx="8" ry="8" style="stroke: #B30C37; stroke-width: 2.0;"/><text fill="#519BC8" font-family="sans-serif" font-size="14" font-weight="bold" lengthAdjust="spacingAndGlyphs" textLength="41" x="232.5" y="117.9951">HTTP</text><!--entity First Component--><rect fill="#8DBF44" height="36.2969" style="stroke: #FFFFFF; stroke-width: 1.5;" width="151" x="38.5" y="70"/><rect fill="#8DBF44" height="5" style="stroke: #FFFFFF; stroke-width: 1.5;" width="10" x="33.5" y="75"/><rect fill="#8DBF44" height="5" style="stroke: #FFFFFF; stroke-width: 1.5;" width="10" x="33.5" y="96.2969"/><text fill="#FFFFFF" font-family="sans-serif" font-size="14" font-weight="bold" lengthAdjust="spacingAndGlyphs" textLength="131" x="48.5" y="92.9951">First Component</text><!--entity Another Component--><rect fill="#8DBF44" height="36.2969" style="stroke: #FFFFFF; stroke-width: 1.5;" width="180" x="316" y="70"/><rect fill="#8DBF44" height="5" style="stroke: #FFFFFF; stroke-width: 1.5;" width="10" x="311" y="75"/><rect fill="#8DBF44" height="5" style="stroke: #FFFFFF; stroke-width: 1.5;" width="10" x="311" y="96.2969"/><text fill="#FFFFFF" font-family="sans-serif" font-size="14" font-weight="bold" lengthAdjust="spacingAndGlyphs" textLength="160" x="326" y="92.9951">Another Component</text><!--entity FTP--><ellipse cx="89" cy="221" fill="#EF525B" rx="8" ry="8" style="stroke: #B30C37; stroke-width: 2.0;"/><text fill="#519BC8" font-family="sans-serif" font-size="14" font-weight="bold" lengthAdjust="spacingAndGlyphs" textLength="29" x="74.5" y="250.9951">FTP</text><!--entity Second Component--><rect fill="#8DBF44" height="36.2969" style="stroke: #FFFFFF; stroke-width: 1.5;" width="175" x="151.5" y="203"/><rect fill="#8DBF44" height="5" style="stroke: #FFFFFF; stroke-width: 1.5;" width="10" x="146.5" y="208"/><rect fill="#8DBF44" height="5" style="stroke: #FFFFFF; stroke-width: 1.5;" width="10" x="146.5" y="229.2969"/><text fill="#FFFFFF" font-family="sans-serif" font-size="14" font-weight="bold" lengthAdjust="spacingAndGlyphs" textLength="155" x="161.5" y="225.9951">Second Component</text><!--entity Example 1--><rect fill="#8DBF44" height="36.2969" style="stroke: #FFFFFF; stroke-width: 1.5;" width="100" x="383" y="203"/><rect fill="#8DBF44" height="5" style="stroke: #FFFFFF; stroke-width: 1.5;" width="10" x="378" y="208"/><rect fill="#8DBF44" height="5" style="stroke: #FFFFFF; stroke-width: 1.5;" width="10" x="378" y="229.2969"/><text fill="#FFFFFF" font-family="sans-serif" font-size="14" font-weight="bold" lengthAdjust="spacingAndGlyphs" textLength="80" x="393" y="225.9951">Example 1</text><!--entity Folder 3--><rect fill="#8DBF44" height="36.2969" style="stroke: #FFFFFF; stroke-width: 1.5;" width="85" x="390.5" y="383"/><rect fill="#8DBF44" height="5" style="stroke: #FFFFFF; stroke-width: 1.5;" width="10" x="385.5" y="388"/><rect fill="#8DBF44" height="5" style="stroke: #FFFFFF; stroke-width: 1.5;" width="10" x="385.5" y="409.2969"/><text fill="#FFFFFF" font-family="sans-serif" font-size="14" font-weight="bold" lengthAdjust="spacingAndGlyphs" textLength="65" x="400.5" y="405.9951">Folder 3</text><!--entity Frame 4--><rect fill="#8DBF44" height="36.2969" style="stroke: #FFFFFF; stroke-width: 1.5;" width="84" x="391" y="494"/><rect fill="#8DBF44" height="5" style="stroke: #FFFFFF; stroke-width: 1.5;" width="10" x="386" y="499"/><rect fill="#8DBF44" height="5" style="stroke: #FFFFFF; stroke-width: 1.5;" width="10" x="386" y="520.2969"/><text fill="#FFFFFF" font-family="sans-serif" font-size="14" font-weight="bold" lengthAdjust="spacingAndGlyphs" textLength="64" x="401" y="516.9951">Frame 4</text><!--link HTTP to First Component--><path d="M243.979,88 C232.899,88 211.771,88 189.772,88 " fill="none" id="HTTP-First Component" style="stroke: #519BC8; stroke-width: 2.0;"/><!--link FTP to Second Component--><path d="M98.3812,221 C109.223,221 129.3,221 150.914,221 " fill="none" id="FTP-Second Component" style="stroke: #519BC8; stroke-width: 2.0;"/><!--link First Component to FTP--><path d="M110.732,106.126 C105.6621,132.691 96.0152,183.24 91.477,207.021 " fill="none" id="First Component-FTP" style="stroke: #519BC8; stroke-width: 2.0;"/><polygon fill="#519BC8" points="90.5391,211.935,96.1551,203.8442,91.4762,207.0236,88.2968,202.3448,90.5391,211.935" style="stroke: #519BC8; stroke-width: 1.0;"/><!--link Another Component to Example 1--><path d="M409.53,106.126 C414.381,129.663 423.113,172.029 428.449,197.921 " fill="none" id="Another Component-Example 1" style="stroke: #519BC8; stroke-width: 2.0;"/><polygon fill="#519BC8" points="429.469,202.87,431.5686,193.2475,428.459,197.9731,423.7335,194.8635,429.469,202.87" style="stroke: #519BC8; stroke-width: 1.0;"/><!--link Example 1 to Folder 3--><path d="M433,239.067 C433,271.496 433,341.979 433,377.938 " fill="none" id="Example 1-Folder 3" style="stroke: #519BC8; stroke-width: 2.0;"/><polygon fill="#519BC8" points="433,382.984,437,373.984,433,377.984,429,373.984,433,382.984" style="stroke: #519BC8; stroke-width: 1.0;"/><!--link Folder 3 to Frame 4--><path d="M433,419.031 C433,437.798 433,468.055 433,488.6998 " fill="none" id="Folder 3-Frame 4" style="stroke: #519BC8; stroke-width: 2.0;"/><polygon fill="#519BC8" points="433,493.7286,437,484.7286,433,488.7286,429,484.7286,433,493.7286" style="stroke: #519BC8; stroke-width: 1.0;"/><!--
@startuml

skinparam backgroundColor transparent
skinparam defaultFontColor #519BC8
skinparam defaultFontStyle bold
skinparam arrowColor #519BC8
skinparam arrowThickness 2
skinparam shadowing false

skinparam actor {
    borderColor #EF525B
    backgroundColor #EF525B
    fontColor #EF525B
}
skinparam agent {
    borderColor white
    backGroundcolor #8DBF44
    fontColor white
}
skinparam database {
    borderColor white
    backGroundcolor #8DBF44
    fontColor white
} 
skinparam rectangle {
    borderColor #888888
    backGroundcolor #EEEEEE
    fontColor #888888
}
skinparam cloud {
    borderColor #888888
    backGroundcolor #EEEEEE
    fontColor #888888
}
skinparam folder {
    borderColor #888888
    backGroundcolor #EEEEEE
    fontColor #888888
}
skinparam package {
    borderColor #888888
    backGroundcolor #EEEEEE
    fontColor #888888
}
skinparam frame {
    borderColor #888888
    backGroundcolor #EEEEEE
    fontColor #888888
}
skinparam component {
    borderColor white
    backGroundcolor #8DBF44
    fontColor white
}
skinparam artifact {
    borderColor white
    backGroundcolor #8DBF44
    fontColor white
}
skinparam node {
    borderColor white
    backGroundcolor #8DBF44
    fontColor white
}
skinparam queue {
    borderColor white
    backGroundcolor #8DBF44
    fontColor white
}
skinparam file {
    borderColor white
    backGroundcolor #8DBF44
    fontColor white
}
skinparam storage {
    borderColor white
    backGroundcolor #8DBF44
    fontColor white
}
skinparam interface {
    borderColor #B30C37
    backGroundcolor #EF525B
}
skinparam boundary {
    borderColor #B30C37
    backGroundcolor #EF525B
}
skinparam entity {
    borderColor #B30C37
    backGroundcolor #EF525B
}
skinparam control {
    borderColor #B30C37
    backGroundcolor #EF525B
}
skinparam sequence {
    BoxFontColor white
    ParticipantFontColor white
    ParticipantBackgroundColor #8DBF44
    ParticipantBorderColor white
	LifeLineBorderColor #888888
	LifeLineBorderThickness 2
    DividerFontColor #555555
    DividerBorderColor #888888
    DividerBackGroundcolor #EEEEEE
}
skinparam usecase {
    borderColor white
    fontColor white
    backgroundColor #8DBF44
}
skinparam activity {
    startColor #B30C37
    endColor #B30C37
    borderColor white
    fontColor white
    backgroundColor #8DBF44
    diamondBackgroundColor #EEEEEE
    diamondBorderColor #888888
    diamondFontColor #888888
}
package "Some Group" {
  HTTP - [First Component]
  [Another Component]
}
rectangle "Other Groups" {
  FTP - [Second Component]
  [First Component] - -> FTP
}
cloud {
  [Example 1]
}
database "MySql" {
  folder "This is my folder" {
    [Folder 3]
  }
  frame "Foo" {
    [Frame 4]
  }
}
[Another Component] - -> [Example 1]
[Example 1] - -> [Folder 3]
[Folder 3] - -> [Frame 4]
@enduml

PlantUML version 1.2018.01(Sun Jan 28 18:08:22 UTC 2018)
(APACHE source distribution)
Java Runtime: OpenJDK Runtime Environment
JVM: OpenJDK 64-Bit Server VM
Java Version: 11.0.1+13-Debian-2bpo91
Operating System: Linux
OS Version: 4.14.48-coreos-r2
Default Encoding: UTF-8
Language: en
Country: null
--></g></svg>