<?xml version="1.0" encoding="UTF-8" standalone="no"?><svg xmlns="http://www.w3.org/2000/svg" xmlns:xlink="http://www.w3.org/1999/xlink" contentScriptType="application/ecmascript" contentStyleType="text/css" height="243px" preserveAspectRatio="none" style="width:442px;height:243px;" version="1.1" viewBox="0 0 442 243" width="442px" zoomAndPan="magnify"><defs/><g><!--cluster net.dummy--><polygon fill="#DDDDDD" points="22,24,116,24,123,46.2969,144,46.2969,144,231,22,231,22,24" style="stroke: #888888; stroke-width: 1.5;"/><line style="stroke: #888888; stroke-width: 1.5;" x1="22" x2="123" y1="46.2969" y2="46.2969"/><text fill="#888888" font-family="sans-serif" font-size="14" font-weight="bold" lengthAdjust="spacingAndGlyphs" textLength="88" x="26" y="38.9951">net.dummy</text><!--cluster net.foo--><polygon fill="#EEEEEE" points="168,132,231,132,238,154.2969,282,154.2969,282,231,168,231,168,132" style="stroke: #888888; stroke-width: 1.5;"/><line style="stroke: #888888; stroke-width: 1.5;" x1="168" x2="238" y1="154.2969" y2="154.2969"/><text fill="#888888" font-family="sans-serif" font-size="14" font-weight="bold" lengthAdjust="spacingAndGlyphs" textLength="57" x="172" y="146.9951">net.foo</text><!--cluster net.unused--><polygon fill="#EEEEEE" points="306,132,402,132,409,154.2969,420,154.2969,420,231,306,231,306,132" style="stroke: #888888; stroke-width: 1.5;"/><line style="stroke: #888888; stroke-width: 1.5;" x1="306" x2="409" y1="154.2969" y2="154.2969"/><text fill="#888888" font-family="sans-serif" font-size="14" font-weight="bold" lengthAdjust="spacingAndGlyphs" textLength="90" x="310" y="146.9951">net.unused</text><!--class net.dummy.Person--><rect fill="#FFFFFF" height="48" id="net.dummy.Person" style="stroke: #8DBF44; stroke-width: 1.5;" width="82" x="46" y="167"/><rect fill="#8DBF44" height="32" style="stroke: #8DBF44; stroke-width: 1.5;" width="82" x="46" y="167"/><ellipse cx="61" cy="183" fill="#CCFFCC" rx="11" ry="11" style="stroke: #8DBF44; stroke-width: 1.0;"/><path d="M63.9688,188.6406 Q63.3906,188.9375 62.75,189.0781 Q62.1094,189.2344 61.4063,189.2344 Q58.9063,189.2344 57.5781,187.5938 Q56.2656,185.9375 56.2656,182.8125 Q56.2656,179.6875 57.5781,178.0313 Q58.9063,176.375 61.4063,176.375 Q62.1094,176.375 62.75,176.5313 Q63.4063,176.6875 63.9688,176.9844 L63.9688,179.7031 Q63.3438,179.125 62.75,178.8594 Q62.1563,178.5781 61.5313,178.5781 Q60.1875,178.5781 59.5,179.6563 Q58.8125,180.7188 58.8125,182.8125 Q58.8125,184.9063 59.5,185.9844 Q60.1875,187.0469 61.5313,187.0469 Q62.1563,187.0469 62.75,186.7813 Q63.3438,186.5 63.9688,185.9219 L63.9688,188.6406 Z "/><text fill="#FFFFFF" font-family="sans-serif" font-size="12" font-weight="bold" lengthAdjust="spacingAndGlyphs" textLength="50" x="75" y="187.1543">Person</text><line style="stroke: #8DBF44; stroke-width: 1.5;" x1="47" x2="127" y1="199" y2="199"/><line style="stroke: #8DBF44; stroke-width: 1.5;" x1="47" x2="127" y1="207" y2="207"/><!--class net.dummy.Meeting--><rect fill="#FFFFFF" height="48" id="net.dummy.Meeting" style="stroke: #8DBF44; stroke-width: 1.5;" width="90" x="38" y="59"/><rect fill="#8DBF44" height="32" style="stroke: #8DBF44; stroke-width: 1.5;" width="90" x="38" y="59"/><ellipse cx="53" cy="75" fill="#CCFFCC" rx="11" ry="11" style="stroke: #8DBF44; stroke-width: 1.0;"/><path d="M55.9688,80.6406 Q55.3906,80.9375 54.75,81.0781 Q54.1094,81.2344 53.4063,81.2344 Q50.9063,81.2344 49.5781,79.5938 Q48.2656,77.9375 48.2656,74.8125 Q48.2656,71.6875 49.5781,70.0313 Q50.9063,68.375 53.4063,68.375 Q54.1094,68.375 54.75,68.5313 Q55.4063,68.6875 55.9688,68.9844 L55.9688,71.7031 Q55.3438,71.125 54.75,70.8594 Q54.1563,70.5781 53.5313,70.5781 Q52.1875,70.5781 51.5,71.6563 Q50.8125,72.7188 50.8125,74.8125 Q50.8125,76.9063 51.5,77.9844 Q52.1875,79.0469 53.5313,79.0469 Q54.1563,79.0469 54.75,78.7813 Q55.3438,78.5 55.9688,77.9219 L55.9688,80.6406 Z "/><text fill="#FFFFFF" font-family="sans-serif" font-size="12" font-weight="bold" lengthAdjust="spacingAndGlyphs" textLength="58" x="67" y="79.1543">Meeting</text><line style="stroke: #8DBF44; stroke-width: 1.5;" x1="39" x2="127" y1="91" y2="91"/><line style="stroke: #8DBF44; stroke-width: 1.5;" x1="39" x2="127" y1="99" y2="99"/><!--class net.foo.Person--><rect fill="#FFFFFF" height="48" id="net.foo.Person" style="stroke: #8DBF44; stroke-width: 1.5;" width="82" x="184" y="167"/><rect fill="#8DBF44" height="32" style="stroke: #8DBF44; stroke-width: 1.5;" width="82" x="184" y="167"/><ellipse cx="199" cy="183" fill="#CCFFCC" rx="11" ry="11" style="stroke: #8DBF44; stroke-width: 1.0;"/><path d="M201.9688,188.6406 Q201.3906,188.9375 200.75,189.0781 Q200.1094,189.2344 199.4063,189.2344 Q196.9063,189.2344 195.5781,187.5938 Q194.2656,185.9375 194.2656,182.8125 Q194.2656,179.6875 195.5781,178.0313 Q196.9063,176.375 199.4063,176.375 Q200.1094,176.375 200.75,176.5313 Q201.4063,176.6875 201.9688,176.9844 L201.9688,179.7031 Q201.3438,179.125 200.75,178.8594 Q200.1563,178.5781 199.5313,178.5781 Q198.1875,178.5781 197.5,179.6563 Q196.8125,180.7188 196.8125,182.8125 Q196.8125,184.9063 197.5,185.9844 Q198.1875,187.0469 199.5313,187.0469 Q200.1563,187.0469 200.75,186.7813 Q201.3438,186.5 201.9688,185.9219 L201.9688,188.6406 Z "/><text fill="#FFFFFF" font-family="sans-serif" font-size="12" font-weight="bold" lengthAdjust="spacingAndGlyphs" textLength="50" x="213" y="187.1543">Person</text><line style="stroke: #8DBF44; stroke-width: 1.5;" x1="185" x2="265" y1="199" y2="199"/><line style="stroke: #8DBF44; stroke-width: 1.5;" x1="185" x2="265" y1="207" y2="207"/><!--class net.unused.Person--><rect fill="#FFFFFF" height="48" id="net.unused.Person" style="stroke: #8DBF44; stroke-width: 1.5;" width="82" x="322" y="167"/><rect fill="#8DBF44" height="32" style="stroke: #8DBF44; stroke-width: 1.5;" width="82" x="322" y="167"/><ellipse cx="337" cy="183" fill="#CCFFCC" rx="11" ry="11" style="stroke: #8DBF44; stroke-width: 1.0;"/><path d="M339.9688,188.6406 Q339.3906,188.9375 338.75,189.0781 Q338.1094,189.2344 337.4063,189.2344 Q334.9063,189.2344 333.5781,187.5938 Q332.2656,185.9375 332.2656,182.8125 Q332.2656,179.6875 333.5781,178.0313 Q334.9063,176.375 337.4063,176.375 Q338.1094,176.375 338.75,176.5313 Q339.4063,176.6875 339.9688,176.9844 L339.9688,179.7031 Q339.3438,179.125 338.75,178.8594 Q338.1563,178.5781 337.5313,178.5781 Q336.1875,178.5781 335.5,179.6563 Q334.8125,180.7188 334.8125,182.8125 Q334.8125,184.9063 335.5,185.9844 Q336.1875,187.0469 337.5313,187.0469 Q338.1563,187.0469 338.75,186.7813 Q339.3438,186.5 339.9688,185.9219 L339.9688,188.6406 Z "/><text fill="#FFFFFF" font-family="sans-serif" font-size="12" font-weight="bold" lengthAdjust="spacingAndGlyphs" textLength="50" x="351" y="187.1543">Person</text><line style="stroke: #8DBF44; stroke-width: 1.5;" x1="323" x2="403" y1="199" y2="199"/><line style="stroke: #8DBF44; stroke-width: 1.5;" x1="323" x2="403" y1="207" y2="207"/><!--class BaseClass--><rect fill="#FFFFFF" height="48" id="BaseClass" style="stroke: #8DBF44; stroke-width: 1.5;" width="105" x="167.5" y="59"/><rect fill="#8DBF44" height="32" style="stroke: #8DBF44; stroke-width: 1.5;" width="105" x="167.5" y="59"/><ellipse cx="182.5" cy="75" fill="#CCFFCC" rx="11" ry="11" style="stroke: #8DBF44; stroke-width: 1.0;"/><path d="M185.4688,80.6406 Q184.8906,80.9375 184.25,81.0781 Q183.6094,81.2344 182.9063,81.2344 Q180.4063,81.2344 179.0781,79.5938 Q177.7656,77.9375 177.7656,74.8125 Q177.7656,71.6875 179.0781,70.0313 Q180.4063,68.375 182.9063,68.375 Q183.6094,68.375 184.25,68.5313 Q184.9063,68.6875 185.4688,68.9844 L185.4688,71.7031 Q184.8438,71.125 184.25,70.8594 Q183.6563,70.5781 183.0313,70.5781 Q181.6875,70.5781 181,71.6563 Q180.3125,72.7188 180.3125,74.8125 Q180.3125,76.9063 181,77.9844 Q181.6875,79.0469 183.0313,79.0469 Q183.6563,79.0469 184.25,78.7813 Q184.8438,78.5 185.4688,77.9219 L185.4688,80.6406 Z "/><text fill="#FFFFFF" font-family="sans-serif" font-size="12" font-weight="bold" lengthAdjust="spacingAndGlyphs" textLength="73" x="196.5" y="79.1543">BaseClass</text><line style="stroke: #8DBF44; stroke-width: 1.5;" x1="168.5" x2="271.5" y1="91" y2="91"/><line style="stroke: #8DBF44; stroke-width: 1.5;" x1="168.5" x2="271.5" y1="99" y2="99"/><!--link BaseClass to net.dummy.Person--><path d="M173.655,119.544 C171.741,121.045 169.85,122.535 168,124 C150.223,138.075 130.494,154.1408 114.959,166.8972 " fill="none" id="BaseClass-net.dummy.Person" style="stroke: #519BC8; stroke-width: 2.0;"/><polygon fill="none" points="169.554,113.866,189.643,107.124,178.143,124.922,169.554,113.866" style="stroke: #519BC8; stroke-width: 1.0;"/><!--link net.dummy.Meeting to net.dummy.Person--><path d="M84.3713,120.338 C84.9502,135.681 85.6075,153.098 86.1199,166.6784 " fill="none" id="net.dummy.Meeting-net.dummy.Person" style="stroke: #519BC8; stroke-width: 2.0;"/><polygon fill="#FFFFFF" points="83.8679,107,80.0969,113.1465,84.3202,118.9915,88.0912,112.845,83.8679,107" style="stroke: #519BC8; stroke-width: 1.0;"/><!--link BaseClass to net.dummy.Meeting--><path d="M147.149,83 C140.84,83 134.53,83 128.221,83 " fill="none" id="BaseClass-net.dummy.Meeting" style="stroke: #519BC8; stroke-width: 2.0;"/><polygon fill="none" points="147.299,76,167.299,83,147.299,90,147.299,76" style="stroke: #519BC8; stroke-width: 1.0;"/><!--link net.dummy.Person to net.foo.Person--><path d="M148.64,191 C160.36,191 172.08,191 183.801,191 " fill="none" id="net.dummy.Person-net.foo.Person" style="stroke: #519BC8; stroke-width: 2.0;"/><polygon fill="none" points="148.238,197.9999,128.238,191,148.238,183.9999,148.238,197.9999" style="stroke: #519BC8; stroke-width: 1.0;"/><!--link BaseClass to net.foo.Person--><path d="M222.029,127.024 C222.669,140.579 223.351,155.0381 223.9,166.6784 " fill="none" id="BaseClass-net.foo.Person" style="stroke: #519BC8; stroke-width: 2.0;"/><polygon fill="none" points="215.035,127.308,221.085,107,229.02,126.648,215.035,127.308" style="stroke: #519BC8; stroke-width: 1.0;"/><!--link net.dummy.Meeting to net.foo.Person--><path d="M130.372,114.368 C135.022,117.556 139.632,120.801 144,124 C162.587,137.611 182.667,153.9601 198.184,166.9813 " fill="none" id="net.dummy.Meeting-net.foo.Person" style="stroke: #519BC8; stroke-width: 2.0;"/><polygon fill="#FFFFFF" points="119.546,107.083,122.2911,113.7512,129.5021,113.7819,126.757,107.1138,119.546,107.083" style="stroke: #519BC8; stroke-width: 1.0;"/><!--link BaseClass to net.unused.Person--><path d="M274.034,118.346 C276.747,120.231 279.416,122.122 282,124 C300.637,137.541 320.718,153.8904 336.223,166.9286 " fill="none" id="BaseClass-net.unused.Person" style="stroke: #519BC8; stroke-width: 2.0;"/><polygon fill="none" points="269.877,123.987,257.17,107.03,277.678,112.362,269.877,123.987" style="stroke: #519BC8; stroke-width: 1.0;"/><!--
@startuml

skinparam backgroundColor transparent
skinparam defaultFontColor #519BC8
skinparam defaultFontStyle bold
skinparam arrowColor #519BC8
skinparam arrowThickness 2
skinparam shadowing false

skinparam actor {
    borderColor #EF525B
    backgroundColor #EF525B
    fontColor #EF525B
}
skinparam agent {
    borderColor white
    backGroundcolor #8DBF44
    fontColor white
}
skinparam database {
    borderColor white
    backGroundcolor #519BC8
    fontColor white
} 
skinparam rectangle {
    borderColor #888888
    backGroundcolor #EEEEEE
    fontColor #888888
}
skinparam cloud {
    borderColor #888888
    backGroundcolor #EEEEEE
    fontColor #888888
}
skinparam folder {
    borderColor #888888
    backGroundcolor #EEEEEE
    fontColor #888888
}
skinparam package {
    borderColor #888888
    backGroundcolor #EEEEEE
    fontColor #888888
}
skinparam frame {
    borderColor black
    backGroundcolor white
    fontColor 888888
}
skinparam component {
    borderColor white
    backGroundcolor #8DBF44
    fontColor white
}
skinparam artifact {
    borderColor white
    backGroundcolor #8DBF44
    fontColor white
}
skinparam node {
    borderColor white
    backGroundcolor #8DBF44
    fontColor white
}
skinparam queue {
    borderColor white
    backGroundcolor #8DBF44
    fontColor white
}
skinparam file {
    borderColor white
    backGroundcolor #888888
    fontColor white
}
skinparam storage {
    borderColor white
    backGroundcolor #8DBF44
    fontColor white
}
skinparam interface {
    borderColor #B30C37
    backGroundcolor #EF525B
}
skinparam boundary {
    borderColor #B30C37
    backGroundcolor #EF525B
}
skinparam entity {
    borderColor #B30C37
    backGroundcolor #EF525B
}
skinparam control {
    borderColor #B30C37
    backGroundcolor #EF525B
}
skinparam sequence {
    BoxFontColor white
    ParticipantFontColor white
    ParticipantBackgroundColor #8DBF44
    ParticipantBorderColor white
	LifeLineBorderColor #888888
	LifeLineBorderThickness 2
    DividerFontColor #555555
    DividerBorderColor #888888
    DividerBackGroundcolor #EEEEEE
}
skinparam usecase {
    borderColor white
    fontColor white
    backgroundColor #8DBF44
}
skinparam activity {
    startColor #B30C37
    endColor #B30C37
    borderColor white
    fontColor white
    backgroundColor #8DBF44
    diamondBackgroundColor #EEEEEE
    diamondBorderColor #888888
    diamondFontColor #888888
}
skinparam class {
    fontColor white
    backgroundColor white
    borderColor #8DBF44
    headerBackgroundColor #8DBF44
    headerFontColor #8DBF44
    stereotypeBorderColor #B11E3E
}
skinparam stereotype {
    cBackgroundColor physical
    cBorderColor white
    eBackgroundColor pink
    eBorderColor white
    iBackgroundColor moccasin
    iBorderColor white
    aBackgroundColor lavender
    aBorderColor white
}
skinparam state {
    attributeFontColor white
    backgroundColor #8DBF44
    fontColor white
    borderColor white
    startColor #B30C37
    endColor #B30C37
}
class BaseClass

namespace net.dummy #DDDDDD {
    .BaseClass <|- - Person
    Meeting o- - Person

    .BaseClass <|- Meeting
}

namespace net.foo {
  net.dummy.Person  <|- Person
  .BaseClass <|- - Person

  net.dummy.Meeting o- - Person
}

BaseClass <|- - net.unused.Person
@enduml

PlantUML version 1.2018.01(Sun Jan 28 18:08:22 UTC 2018)
(APACHE source distribution)
Java Runtime: OpenJDK Runtime Environment
JVM: OpenJDK 64-Bit Server VM
Java Version: 11.0.1+13-Debian-2bpo91
Operating System: Linux
OS Version: 4.14.48-coreos-r2
Default Encoding: UTF-8
Language: en
Country: null
--></g></svg>